<?xml version="1.0" encoding="utf-8"?>
<!-- Generator: Adobe Illustrator 28.3.0, SVG Export Plug-In . SVG Version: 6.00 Build 0)  -->
<svg version="1.1" id="图层_1" xmlns="http://www.w3.org/2000/svg" xmlns:xlink="http://www.w3.org/1999/xlink" x="0px" y="0px"
	 viewBox="0 0 1218.9 907.09" style="enable-background:new 0 0 1218.9 907.09;" xml:space="preserve">
<g>
	<path d="M771.41,456.07c16.55-0.14,33.18-0.79,49.42,3.2c36.03,8.86,60.03,30.61,68.85,67.1c4.83,19.99,0.34,38.92-10.91,56.11
		c-1.91,2.93-2.73,5.53-2.16,9.18c2.45,15.51-9.42,30.72-24.5,31.9c-17.97,1.4-32.08-10.74-32.24-27.75
		c-0.15-15.79,8.59-26.48,24.31-28.8c4.15-0.61,5.86-2.71,7.49-5.9c11.36-22.19,2.14-44.22-15.1-56.82
		c-12.26-8.96-26.29-12.31-41.11-12.59c-15.62-0.3-31.27,0.41-46.87-0.16c-28.31-1.04-54.63-8.44-77-26.75
		c-24.68-20.21-39.25-46.11-43.34-77.82c-0.14-1.1,0.41-2.7-1.17-3c-1.36-0.26-1.94,1.15-2.56,2.14c-2.55,4.05-3.65,8.61-3.62,13.26
		c0.36,53.8-27.27,91.36-69.85,120.06c-15.75,10.61-33.48,17.63-50.42,26.05c-16.45,8.17-30.19,19.1-38.25,36.1
		c-14.59,30.77,1.09,70.2,39.22,76.78c2.65,0.46,4.66-0.32,6.74-1.48c7.55-4.2,15.16-3.96,23.39-1.63
		c18.07,5.11,23.39,30.52,13.85,43.34c-11.34,15.24-35.36,15.37-45.95-0.43c-2.08-3.1-4.44-4.76-8.01-5.67
		c-24.48-6.26-43.7-19.96-56.72-41.71c-18.44-30.81-15.9-71.84,7.26-101.88c12.36-16.03,28.46-27.06,46.16-36.22
		c13.4-6.93,27.31-12.9,40.19-20.83c14.76-9.09,28-20.03,38.96-33.51c10.22-12.58,15.16-27.45,17.82-43.2
		c1.09-6.44,1.71-12.94-0.18-19.29c-2.27-7.62-7.3-12.81-15.01-15.09c-5.14-1.52-6.97,0.03-7.34,5.27
		c-1.36,19.47-7.74,37.18-18.9,53.21c-21.65,31.11-52.69,46.22-89.08,51.53c-17.33,2.53-34.94,0.2-52.4,0.94
		c-14.93,0.64-28.83,4.75-39.91,15.33c-15.21,14.52-18.67,32.57-14.8,52.57c0.23,1.17,0.57,2.32,0.76,3.49
		c0.99,6.33,3.43,10.39,10.87,11.54c14.78,2.27,22.06,16.54,20.47,31.22c-1.44,13.25-12.21,23.46-25.04,24.09
		c-15.92,0.78-27.94-7.98-31.01-22.61c-0.77-3.66-1.15-7.32-0.25-11.03c0.48-1.99,0.23-3.82-0.87-5.7
		c-9.46-16.22-12.42-33.77-10.99-52.36c1.77-23.01,12.57-41.37,28.3-57.48c17.2-17.61,38.63-24.3,62.53-24.64
		c14.31-0.2,28.63,0.3,42.94-0.09c29.82-0.81,53.76-13.43,70.67-37.93c9.67-14.01,12.38-30.21,9.54-47.11
		c-0.72-4.26-2.78-8.02-5.74-11.17c-3.53-3.77-5.5-3.32-7.19,1.5c-7.18,20.46-18.42,38.16-35.9,51.34
		c-18.28,13.8-38.69,21.18-61.96,21.11c-22.33-0.07-41.96-6.61-58.71-21.29c-14.98-13.13-24.95-29.38-29.01-49.03
		c-0.24-1.15-0.19-2.37-0.23-3.56c-0.12-3.96-1.28-7.17-4.4-10.1c-9.19-8.65-11-22.25-4.99-33.62
		c6.34-11.99,18.27-18.09,30.65-15.67c12.21,2.38,21.41,12.66,23.06,25.28c1.29,9.88-1.05,18.36-8.55,25.16
		c-1.39,1.26-1.86,2.59-1.5,4.57c4.09,22.69,19.95,38.17,42.58,42.55c34.67,6.72,68.24-18.04,74.64-50.55
		c2.89-14.67,1.88-29.08-4.59-43.08c-8.71-18.84-13.81-38.8-12.94-59.65c2.47-59.21,31.36-101.13,84.63-126.38
		c17.34-8.22,36.01-11.99,55.1-11.9c34.99,0.16,66.43,11.17,93.07,34.13c28.28,24.36,43.78,55.69,47.88,92.62
		c3.03,27.28-3.36,52.85-15.33,77.22c-4.79,9.75-8,20-8.18,30.86c-0.48,27.99,14.78,55.69,48.5,62.19
		c16.93,3.27,32.95,1.18,47.13-9.54c6.17-4.66,10.47-10.77,13.86-17.64c1.09-2.21,0.12-3.72-0.86-5.49
		c-8.14-14.7-2.26-33.11,12.65-39.71c17.91-7.93,39.31,5.79,40,25.63c0.47,13.5-4.03,20.74-16.61,26.37
		c-1.66,0.74-2.48,1.85-3.05,3.37c-11.25,29.91-33.35,46.85-64.25,52.16c-28.73,4.93-54.65-2.5-77.3-20.83
		c-18.96-15.35-29.62-35.59-34.08-59.33c-0.78-4.16-1.57-4.55-5.09-1.96c-9.14,6.72-13.59,16.08-14.25,27.19
		c-1,16.77,6.97,30.03,17.16,42.34c17.6,21.26,40.92,29.6,67.75,29.98C756.83,456.16,764.12,456.07,771.41,456.07z M568.7,261.39
		c-0.16-12.9-9.2-22.12-21.62-22.03c-11.53,0.08-21.01,9.68-20.85,21.11c0.15,11.38,10.46,21.96,21.92,21.28
		C560.42,281.04,569.08,274.5,568.7,261.39z M676.07,260.25c-0.01-11.73-9.8-21.6-21.36-21.54c-10.8,0.06-21.15,10.32-21.06,20.87
		c0.1,11.74,10.3,22.26,21.57,22.25C666.7,281.82,676.08,272.11,676.07,260.25z"/>
	<path d="M762.39,619.71c0.54,17.51-4.05,32.9-12.71,47.17c-0.92,1.52-1.27,2.94-1.09,4.82c1.17,11.82-3.64,20.89-13.46,27.28
		c-9.87,6.43-20.08,5.58-29.61-0.38c-9.62-6.01-14.11-15.14-12.97-26.68c1.27-12.81,8.75-22.16,20.21-25.2
		c1.39-0.37,2.86-0.56,4.3-0.61c6.22-0.19,6.16-0.17,8.2-6.17c5.02-14.78,3.01-29.24-1.94-43.55c-5.27-15.26-14.35-28.3-24.26-40.79
		c-7.07-8.92-14.35-17.66-23.12-25.08c-22.23-18.81-47.91-10.44-61.43,9.65c-11.9,17.68-12.82,35.79-0.91,53.88
		c5.82,8.84,12.37,17.21,18.11,26.1c15.64,24.22,18.86,49.29,4.31,75.31c-1.36,2.43-2.6,4.92-4.09,7.27
		c-5,7.88-14.45,10.21-22.15,5.55c-8.06-4.89-11.04-14.9-6.49-22.77c3.96-6.85,7.14-13.86,7.43-21.93
		c0.36-9.85-3.43-18.33-8.46-26.44c-5.87-9.47-13.23-17.88-19.13-27.34c-19.98-32.02-14.19-68.39,8.13-95.64
		c8.19-9.99,17.73-18.28,29.45-23.74c22.67-10.56,44.19-7.14,65,5.59c17.05,10.43,30.44,24.54,42.08,40.5
		c12.74,17.48,25.06,35.21,30.87,56.5C761.14,602.01,762.87,611.07,762.39,619.71z"/>
</g>
</svg>
