<svg width="20" height="20" viewBox="0 0 20 20" fill="none" xmlns="http://www.w3.org/2000/svg">
<path d="M10 12C11.1046 12 12 11.1046 12 10C12 8.89543 11.1046 8 10 8C8.89543 8 8 8.89543 8 10C8 11.1046 8.89543 12 10 12Z" fill="#0071e3"/>
<path d="M16.24 7.76C15.4672 6.98721 14.5467 6.37646 13.5349 5.96371C12.5232 5.55096 11.4416 5.34478 10.35 5.35714C9.2584 5.34478 8.17684 5.55096 7.16508 5.96371C6.15332 6.37646 5.23278 6.98721 4.46 7.76L3 9.22L4.46 10.68C5.23278 11.4528 6.15332 12.0635 7.16508 12.4763C8.17684 12.889 9.2584 13.0952 10.35 13.0829C11.4416 13.0952 12.5232 12.889 13.5349 12.4763C14.5467 12.0635 15.4672 11.4528 16.24 10.68L17.7 9.22L16.24 7.76Z" fill="#0071e3"/>
</svg>
